<?xml version="1.0" encoding="utf-8" standalone="no"?>
<!DOCTYPE svg PUBLIC "-//W3C//DTD SVG 1.1//EN"
  "http://www.w3.org/Graphics/SVG/1.1/DTD/svg11.dtd">
<svg xmlns:xlink="http://www.w3.org/1999/xlink" width="1152pt" height="648pt" viewBox="0 0 1152 648" xmlns="http://www.w3.org/2000/svg" version="1.1">
 <metadata>
  <rdf:RDF xmlns:dc="http://purl.org/dc/elements/1.1/" xmlns:cc="http://creativecommons.org/ns#" xmlns:rdf="http://www.w3.org/1999/02/22-rdf-syntax-ns#">
   <cc:Work>
    <dc:type rdf:resource="http://purl.org/dc/dcmitype/StillImage"/>
    <dc:date>2022-08-17T18:16:33.583842</dc:date>
    <dc:format>image/svg+xml</dc:format>
    <dc:creator>
     <cc:Agent>
      <dc:title>Matplotlib v3.5.2, https://matplotlib.org/</dc:title>
     </cc:Agent>
    </dc:creator>
   </cc:Work>
  </rdf:RDF>
 </metadata>
 <defs>
  <style type="text/css">*{stroke-linejoin: round; stroke-linecap: butt}</style>
 </defs>
 <g id="figure_1">
  <g id="patch_1">
   <path d="M 0 648 
L 1152 648 
L 1152 0 
L 0 0 
z
" style="fill: #202020"/>
  </g>
  <g id="axes_1">
   <g id="patch_2">
    <path d="M 144 576.72 
L 1036.8 576.72 
L 1036.8 77.76 
L 144 77.76 
z
" style="fill: #202020"/>
   </g>
   <g id="matplotlib.axis_1">
    <g id="xtick_1">
     <g id="line2d_1">
      <defs>
       <path id="m525e06e436" d="M 0 0 
L 0 5 
" style="stroke: #cfd5ff; stroke-width: 0.8"/>
      </defs>
      <g>
       <use xlink:href="#m525e06e436" x="184.581818" y="576.72" style="fill: #cfd5ff; stroke: #cfd5ff; stroke-width: 0.8"/>
      </g>
     </g>
     <g id="text_1">
      <!-- 0 -->
      <g style="fill: #cfd5ff" transform="translate(178.219318 600.416875)scale(0.2 -0.2)">
       <defs>
        <path id="DejaVuSans-30" d="M 2034 4250 
Q 1547 4250 1301 3770 
Q 1056 3291 1056 2328 
Q 1056 1369 1301 889 
Q 1547 409 2034 409 
Q 2525 409 2770 889 
Q 3016 1369 3016 2328 
Q 3016 3291 2770 3770 
Q 2525 4250 2034 4250 
z
M 2034 4750 
Q 2819 4750 3233 4129 
Q 3647 3509 3647 2328 
Q 3647 1150 3233 529 
Q 2819 -91 2034 -91 
Q 1250 -91 836 529 
Q 422 1150 422 2328 
Q 422 3509 836 4129 
Q 1250 4750 2034 4750 
z
" transform="scale(0.015625)"/>
       </defs>
       <use xlink:href="#DejaVuSans-30"/>
      </g>
     </g>
    </g>
    <g id="xtick_2">
     <g id="line2d_2">
      <g>
       <use xlink:href="#m525e06e436" x="344.132902" y="576.72" style="fill: #cfd5ff; stroke: #cfd5ff; stroke-width: 0.8"/>
      </g>
     </g>
     <g id="text_2">
      <!-- 500 -->
      <g style="fill: #cfd5ff" transform="translate(325.045402 600.416875)scale(0.2 -0.2)">
       <defs>
        <path id="DejaVuSans-35" d="M 691 4666 
L 3169 4666 
L 3169 4134 
L 1269 4134 
L 1269 2991 
Q 1406 3038 1543 3061 
Q 1681 3084 1819 3084 
Q 2600 3084 3056 2656 
Q 3513 2228 3513 1497 
Q 3513 744 3044 326 
Q 2575 -91 1722 -91 
Q 1428 -91 1123 -41 
Q 819 9 494 109 
L 494 744 
Q 775 591 1075 516 
Q 1375 441 1709 441 
Q 2250 441 2565 725 
Q 2881 1009 2881 1497 
Q 2881 1984 2565 2268 
Q 2250 2553 1709 2553 
Q 1456 2553 1204 2497 
Q 953 2441 691 2322 
L 691 4666 
z
" transform="scale(0.015625)"/>
       </defs>
       <use xlink:href="#DejaVuSans-35"/>
       <use xlink:href="#DejaVuSans-30" x="63.623047"/>
       <use xlink:href="#DejaVuSans-30" x="127.246094"/>
      </g>
     </g>
    </g>
    <g id="xtick_3">
     <g id="line2d_3">
      <g>
       <use xlink:href="#m525e06e436" x="503.683986" y="576.72" style="fill: #cfd5ff; stroke: #cfd5ff; stroke-width: 0.8"/>
      </g>
     </g>
     <g id="text_3">
      <!-- 1000 -->
      <g style="fill: #cfd5ff" transform="translate(478.233986 600.416875)scale(0.2 -0.2)">
       <defs>
        <path id="DejaVuSans-31" d="M 794 531 
L 1825 531 
L 1825 4091 
L 703 3866 
L 703 4441 
L 1819 4666 
L 2450 4666 
L 2450 531 
L 3481 531 
L 3481 0 
L 794 0 
L 794 531 
z
" transform="scale(0.015625)"/>
       </defs>
       <use xlink:href="#DejaVuSans-31"/>
       <use xlink:href="#DejaVuSans-30" x="63.623047"/>
       <use xlink:href="#DejaVuSans-30" x="127.246094"/>
       <use xlink:href="#DejaVuSans-30" x="190.869141"/>
      </g>
     </g>
    </g>
    <g id="xtick_4">
     <g id="line2d_4">
      <g>
       <use xlink:href="#m525e06e436" x="663.23507" y="576.72" style="fill: #cfd5ff; stroke: #cfd5ff; stroke-width: 0.8"/>
      </g>
     </g>
     <g id="text_4">
      <!-- 1500 -->
      <g style="fill: #cfd5ff" transform="translate(637.78507 600.416875)scale(0.2 -0.2)">
       <use xlink:href="#DejaVuSans-31"/>
       <use xlink:href="#DejaVuSans-35" x="63.623047"/>
       <use xlink:href="#DejaVuSans-30" x="127.246094"/>
       <use xlink:href="#DejaVuSans-30" x="190.869141"/>
      </g>
     </g>
    </g>
    <g id="xtick_5">
     <g id="line2d_5">
      <g>
       <use xlink:href="#m525e06e436" x="822.786154" y="576.72" style="fill: #cfd5ff; stroke: #cfd5ff; stroke-width: 0.8"/>
      </g>
     </g>
     <g id="text_5">
      <!-- 2000 -->
      <g style="fill: #cfd5ff" transform="translate(797.336154 600.416875)scale(0.2 -0.2)">
       <defs>
        <path id="DejaVuSans-32" d="M 1228 531 
L 3431 531 
L 3431 0 
L 469 0 
L 469 531 
Q 828 903 1448 1529 
Q 2069 2156 2228 2338 
Q 2531 2678 2651 2914 
Q 2772 3150 2772 3378 
Q 2772 3750 2511 3984 
Q 2250 4219 1831 4219 
Q 1534 4219 1204 4116 
Q 875 4013 500 3803 
L 500 4441 
Q 881 4594 1212 4672 
Q 1544 4750 1819 4750 
Q 2544 4750 2975 4387 
Q 3406 4025 3406 3419 
Q 3406 3131 3298 2873 
Q 3191 2616 2906 2266 
Q 2828 2175 2409 1742 
Q 1991 1309 1228 531 
z
" transform="scale(0.015625)"/>
       </defs>
       <use xlink:href="#DejaVuSans-32"/>
       <use xlink:href="#DejaVuSans-30" x="63.623047"/>
       <use xlink:href="#DejaVuSans-30" x="127.246094"/>
       <use xlink:href="#DejaVuSans-30" x="190.869141"/>
      </g>
     </g>
    </g>
    <g id="xtick_6">
     <g id="line2d_6">
      <g>
       <use xlink:href="#m525e06e436" x="982.337238" y="576.72" style="fill: #cfd5ff; stroke: #cfd5ff; stroke-width: 0.8"/>
      </g>
     </g>
     <g id="text_6">
      <!-- 2500 -->
      <g style="fill: #cfd5ff" transform="translate(956.887238 600.416875)scale(0.2 -0.2)">
       <use xlink:href="#DejaVuSans-32"/>
       <use xlink:href="#DejaVuSans-35" x="63.623047"/>
       <use xlink:href="#DejaVuSans-30" x="127.246094"/>
       <use xlink:href="#DejaVuSans-30" x="190.869141"/>
      </g>
     </g>
    </g>
    <g id="text_7">
     <!-- Time since start(ms) -->
     <g style="fill: #cfd5ff" transform="translate(487.557812 623.773125)scale(0.2 -0.2)">
      <defs>
       <path id="DejaVuSans-54" d="M -19 4666 
L 3928 4666 
L 3928 4134 
L 2272 4134 
L 2272 0 
L 1638 0 
L 1638 4134 
L -19 4134 
L -19 4666 
z
" transform="scale(0.015625)"/>
       <path id="DejaVuSans-69" d="M 603 3500 
L 1178 3500 
L 1178 0 
L 603 0 
L 603 3500 
z
M 603 4863 
L 1178 4863 
L 1178 4134 
L 603 4134 
L 603 4863 
z
" transform="scale(0.015625)"/>
       <path id="DejaVuSans-6d" d="M 3328 2828 
Q 3544 3216 3844 3400 
Q 4144 3584 4550 3584 
Q 5097 3584 5394 3201 
Q 5691 2819 5691 2113 
L 5691 0 
L 5113 0 
L 5113 2094 
Q 5113 2597 4934 2840 
Q 4756 3084 4391 3084 
Q 3944 3084 3684 2787 
Q 3425 2491 3425 1978 
L 3425 0 
L 2847 0 
L 2847 2094 
Q 2847 2600 2669 2842 
Q 2491 3084 2119 3084 
Q 1678 3084 1418 2786 
Q 1159 2488 1159 1978 
L 1159 0 
L 581 0 
L 581 3500 
L 1159 3500 
L 1159 2956 
Q 1356 3278 1631 3431 
Q 1906 3584 2284 3584 
Q 2666 3584 2933 3390 
Q 3200 3197 3328 2828 
z
" transform="scale(0.015625)"/>
       <path id="DejaVuSans-65" d="M 3597 1894 
L 3597 1613 
L 953 1613 
Q 991 1019 1311 708 
Q 1631 397 2203 397 
Q 2534 397 2845 478 
Q 3156 559 3463 722 
L 3463 178 
Q 3153 47 2828 -22 
Q 2503 -91 2169 -91 
Q 1331 -91 842 396 
Q 353 884 353 1716 
Q 353 2575 817 3079 
Q 1281 3584 2069 3584 
Q 2775 3584 3186 3129 
Q 3597 2675 3597 1894 
z
M 3022 2063 
Q 3016 2534 2758 2815 
Q 2500 3097 2075 3097 
Q 1594 3097 1305 2825 
Q 1016 2553 972 2059 
L 3022 2063 
z
" transform="scale(0.015625)"/>
       <path id="DejaVuSans-20" transform="scale(0.015625)"/>
       <path id="DejaVuSans-73" d="M 2834 3397 
L 2834 2853 
Q 2591 2978 2328 3040 
Q 2066 3103 1784 3103 
Q 1356 3103 1142 2972 
Q 928 2841 928 2578 
Q 928 2378 1081 2264 
Q 1234 2150 1697 2047 
L 1894 2003 
Q 2506 1872 2764 1633 
Q 3022 1394 3022 966 
Q 3022 478 2636 193 
Q 2250 -91 1575 -91 
Q 1294 -91 989 -36 
Q 684 19 347 128 
L 347 722 
Q 666 556 975 473 
Q 1284 391 1588 391 
Q 1994 391 2212 530 
Q 2431 669 2431 922 
Q 2431 1156 2273 1281 
Q 2116 1406 1581 1522 
L 1381 1569 
Q 847 1681 609 1914 
Q 372 2147 372 2553 
Q 372 3047 722 3315 
Q 1072 3584 1716 3584 
Q 2034 3584 2315 3537 
Q 2597 3491 2834 3397 
z
" transform="scale(0.015625)"/>
       <path id="DejaVuSans-6e" d="M 3513 2113 
L 3513 0 
L 2938 0 
L 2938 2094 
Q 2938 2591 2744 2837 
Q 2550 3084 2163 3084 
Q 1697 3084 1428 2787 
Q 1159 2491 1159 1978 
L 1159 0 
L 581 0 
L 581 3500 
L 1159 3500 
L 1159 2956 
Q 1366 3272 1645 3428 
Q 1925 3584 2291 3584 
Q 2894 3584 3203 3211 
Q 3513 2838 3513 2113 
z
" transform="scale(0.015625)"/>
       <path id="DejaVuSans-63" d="M 3122 3366 
L 3122 2828 
Q 2878 2963 2633 3030 
Q 2388 3097 2138 3097 
Q 1578 3097 1268 2742 
Q 959 2388 959 1747 
Q 959 1106 1268 751 
Q 1578 397 2138 397 
Q 2388 397 2633 464 
Q 2878 531 3122 666 
L 3122 134 
Q 2881 22 2623 -34 
Q 2366 -91 2075 -91 
Q 1284 -91 818 406 
Q 353 903 353 1747 
Q 353 2603 823 3093 
Q 1294 3584 2113 3584 
Q 2378 3584 2631 3529 
Q 2884 3475 3122 3366 
z
" transform="scale(0.015625)"/>
       <path id="DejaVuSans-74" d="M 1172 4494 
L 1172 3500 
L 2356 3500 
L 2356 3053 
L 1172 3053 
L 1172 1153 
Q 1172 725 1289 603 
Q 1406 481 1766 481 
L 2356 481 
L 2356 0 
L 1766 0 
Q 1100 0 847 248 
Q 594 497 594 1153 
L 594 3053 
L 172 3053 
L 172 3500 
L 594 3500 
L 594 4494 
L 1172 4494 
z
" transform="scale(0.015625)"/>
       <path id="DejaVuSans-61" d="M 2194 1759 
Q 1497 1759 1228 1600 
Q 959 1441 959 1056 
Q 959 750 1161 570 
Q 1363 391 1709 391 
Q 2188 391 2477 730 
Q 2766 1069 2766 1631 
L 2766 1759 
L 2194 1759 
z
M 3341 1997 
L 3341 0 
L 2766 0 
L 2766 531 
Q 2569 213 2275 61 
Q 1981 -91 1556 -91 
Q 1019 -91 701 211 
Q 384 513 384 1019 
Q 384 1609 779 1909 
Q 1175 2209 1959 2209 
L 2766 2209 
L 2766 2266 
Q 2766 2663 2505 2880 
Q 2244 3097 1772 3097 
Q 1472 3097 1187 3025 
Q 903 2953 641 2809 
L 641 3341 
Q 956 3463 1253 3523 
Q 1550 3584 1831 3584 
Q 2591 3584 2966 3190 
Q 3341 2797 3341 1997 
z
" transform="scale(0.015625)"/>
       <path id="DejaVuSans-72" d="M 2631 2963 
Q 2534 3019 2420 3045 
Q 2306 3072 2169 3072 
Q 1681 3072 1420 2755 
Q 1159 2438 1159 1844 
L 1159 0 
L 581 0 
L 581 3500 
L 1159 3500 
L 1159 2956 
Q 1341 3275 1631 3429 
Q 1922 3584 2338 3584 
Q 2397 3584 2469 3576 
Q 2541 3569 2628 3553 
L 2631 2963 
z
" transform="scale(0.015625)"/>
       <path id="DejaVuSans-28" d="M 1984 4856 
Q 1566 4138 1362 3434 
Q 1159 2731 1159 2009 
Q 1159 1288 1364 580 
Q 1569 -128 1984 -844 
L 1484 -844 
Q 1016 -109 783 600 
Q 550 1309 550 2009 
Q 550 2706 781 3412 
Q 1013 4119 1484 4856 
L 1984 4856 
z
" transform="scale(0.015625)"/>
       <path id="DejaVuSans-29" d="M 513 4856 
L 1013 4856 
Q 1481 4119 1714 3412 
Q 1947 2706 1947 2009 
Q 1947 1309 1714 600 
Q 1481 -109 1013 -844 
L 513 -844 
Q 928 -128 1133 580 
Q 1338 1288 1338 2009 
Q 1338 2731 1133 3434 
Q 928 4138 513 4856 
z
" transform="scale(0.015625)"/>
      </defs>
      <use xlink:href="#DejaVuSans-54"/>
      <use xlink:href="#DejaVuSans-69" x="57.958984"/>
      <use xlink:href="#DejaVuSans-6d" x="85.742188"/>
      <use xlink:href="#DejaVuSans-65" x="183.154297"/>
      <use xlink:href="#DejaVuSans-20" x="244.677734"/>
      <use xlink:href="#DejaVuSans-73" x="276.464844"/>
      <use xlink:href="#DejaVuSans-69" x="328.564453"/>
      <use xlink:href="#DejaVuSans-6e" x="356.347656"/>
      <use xlink:href="#DejaVuSans-63" x="419.726562"/>
      <use xlink:href="#DejaVuSans-65" x="474.707031"/>
      <use xlink:href="#DejaVuSans-20" x="536.230469"/>
      <use xlink:href="#DejaVuSans-73" x="568.017578"/>
      <use xlink:href="#DejaVuSans-74" x="620.117188"/>
      <use xlink:href="#DejaVuSans-61" x="659.326172"/>
      <use xlink:href="#DejaVuSans-72" x="720.605469"/>
      <use xlink:href="#DejaVuSans-74" x="761.71875"/>
      <use xlink:href="#DejaVuSans-28" x="800.927734"/>
      <use xlink:href="#DejaVuSans-6d" x="839.941406"/>
      <use xlink:href="#DejaVuSans-73" x="937.353516"/>
      <use xlink:href="#DejaVuSans-29" x="989.453125"/>
     </g>
    </g>
   </g>
   <g id="matplotlib.axis_2">
    <g id="ytick_1">
     <g id="line2d_7">
      <defs>
       <path id="m18aa1c056c" d="M 0 0 
L -5 0 
" style="stroke: #cfd5ff; stroke-width: 0.8"/>
      </defs>
      <g>
       <use xlink:href="#m18aa1c056c" x="144" y="554.04" style="fill: #cfd5ff; stroke: #cfd5ff; stroke-width: 0.8"/>
      </g>
     </g>
     <g id="text_8">
      <!-- 0 -->
      <g style="fill: #cfd5ff" transform="translate(122.775 561.638438)scale(0.2 -0.2)">
       <use xlink:href="#DejaVuSans-30"/>
      </g>
     </g>
    </g>
    <g id="ytick_2">
     <g id="line2d_8">
      <g>
       <use xlink:href="#m18aa1c056c" x="144" y="492.940862" style="fill: #cfd5ff; stroke: #cfd5ff; stroke-width: 0.8"/>
      </g>
     </g>
     <g id="text_9">
      <!-- 500 -->
      <g style="fill: #cfd5ff" transform="translate(97.325 500.5393)scale(0.2 -0.2)">
       <use xlink:href="#DejaVuSans-35"/>
       <use xlink:href="#DejaVuSans-30" x="63.623047"/>
       <use xlink:href="#DejaVuSans-30" x="127.246094"/>
      </g>
     </g>
    </g>
    <g id="ytick_3">
     <g id="line2d_9">
      <g>
       <use xlink:href="#m18aa1c056c" x="144" y="431.841724" style="fill: #cfd5ff; stroke: #cfd5ff; stroke-width: 0.8"/>
      </g>
     </g>
     <g id="text_10">
      <!-- 1000 -->
      <g style="fill: #cfd5ff" transform="translate(84.6 439.440162)scale(0.2 -0.2)">
       <use xlink:href="#DejaVuSans-31"/>
       <use xlink:href="#DejaVuSans-30" x="63.623047"/>
       <use xlink:href="#DejaVuSans-30" x="127.246094"/>
       <use xlink:href="#DejaVuSans-30" x="190.869141"/>
      </g>
     </g>
    </g>
    <g id="ytick_4">
     <g id="line2d_10">
      <g>
       <use xlink:href="#m18aa1c056c" x="144" y="370.742586" style="fill: #cfd5ff; stroke: #cfd5ff; stroke-width: 0.8"/>
      </g>
     </g>
     <g id="text_11">
      <!-- 1500 -->
      <g style="fill: #cfd5ff" transform="translate(84.6 378.341024)scale(0.2 -0.2)">
       <use xlink:href="#DejaVuSans-31"/>
       <use xlink:href="#DejaVuSans-35" x="63.623047"/>
       <use xlink:href="#DejaVuSans-30" x="127.246094"/>
       <use xlink:href="#DejaVuSans-30" x="190.869141"/>
      </g>
     </g>
    </g>
    <g id="ytick_5">
     <g id="line2d_11">
      <g>
       <use xlink:href="#m18aa1c056c" x="144" y="309.643448" style="fill: #cfd5ff; stroke: #cfd5ff; stroke-width: 0.8"/>
      </g>
     </g>
     <g id="text_12">
      <!-- 2000 -->
      <g style="fill: #cfd5ff" transform="translate(84.6 317.241886)scale(0.2 -0.2)">
       <use xlink:href="#DejaVuSans-32"/>
       <use xlink:href="#DejaVuSans-30" x="63.623047"/>
       <use xlink:href="#DejaVuSans-30" x="127.246094"/>
       <use xlink:href="#DejaVuSans-30" x="190.869141"/>
      </g>
     </g>
    </g>
    <g id="ytick_6">
     <g id="line2d_12">
      <g>
       <use xlink:href="#m18aa1c056c" x="144" y="248.54431" style="fill: #cfd5ff; stroke: #cfd5ff; stroke-width: 0.8"/>
      </g>
     </g>
     <g id="text_13">
      <!-- 2500 -->
      <g style="fill: #cfd5ff" transform="translate(84.6 256.142748)scale(0.2 -0.2)">
       <use xlink:href="#DejaVuSans-32"/>
       <use xlink:href="#DejaVuSans-35" x="63.623047"/>
       <use xlink:href="#DejaVuSans-30" x="127.246094"/>
       <use xlink:href="#DejaVuSans-30" x="190.869141"/>
      </g>
     </g>
    </g>
    <g id="ytick_7">
     <g id="line2d_13">
      <g>
       <use xlink:href="#m18aa1c056c" x="144" y="187.445172" style="fill: #cfd5ff; stroke: #cfd5ff; stroke-width: 0.8"/>
      </g>
     </g>
     <g id="text_14">
      <!-- 3000 -->
      <g style="fill: #cfd5ff" transform="translate(84.6 195.04361)scale(0.2 -0.2)">
       <defs>
        <path id="DejaVuSans-33" d="M 2597 2516 
Q 3050 2419 3304 2112 
Q 3559 1806 3559 1356 
Q 3559 666 3084 287 
Q 2609 -91 1734 -91 
Q 1441 -91 1130 -33 
Q 819 25 488 141 
L 488 750 
Q 750 597 1062 519 
Q 1375 441 1716 441 
Q 2309 441 2620 675 
Q 2931 909 2931 1356 
Q 2931 1769 2642 2001 
Q 2353 2234 1838 2234 
L 1294 2234 
L 1294 2753 
L 1863 2753 
Q 2328 2753 2575 2939 
Q 2822 3125 2822 3475 
Q 2822 3834 2567 4026 
Q 2313 4219 1838 4219 
Q 1578 4219 1281 4162 
Q 984 4106 628 3988 
L 628 4550 
Q 988 4650 1302 4700 
Q 1616 4750 1894 4750 
Q 2613 4750 3031 4423 
Q 3450 4097 3450 3541 
Q 3450 3153 3228 2886 
Q 3006 2619 2597 2516 
z
" transform="scale(0.015625)"/>
       </defs>
       <use xlink:href="#DejaVuSans-33"/>
       <use xlink:href="#DejaVuSans-30" x="63.623047"/>
       <use xlink:href="#DejaVuSans-30" x="127.246094"/>
       <use xlink:href="#DejaVuSans-30" x="190.869141"/>
      </g>
     </g>
    </g>
    <g id="ytick_8">
     <g id="line2d_14">
      <g>
       <use xlink:href="#m18aa1c056c" x="144" y="126.346034" style="fill: #cfd5ff; stroke: #cfd5ff; stroke-width: 0.8"/>
      </g>
     </g>
     <g id="text_15">
      <!-- 3500 -->
      <g style="fill: #cfd5ff" transform="translate(84.6 133.944472)scale(0.2 -0.2)">
       <use xlink:href="#DejaVuSans-33"/>
       <use xlink:href="#DejaVuSans-35" x="63.623047"/>
       <use xlink:href="#DejaVuSans-30" x="127.246094"/>
       <use xlink:href="#DejaVuSans-30" x="190.869141"/>
      </g>
     </g>
    </g>
    <g id="text_16">
     <!-- Ping response time(ms) -->
     <g style="fill: #cfd5ff" transform="translate(76.440625 445.625938)rotate(-90)scale(0.2 -0.2)">
      <defs>
       <path id="DejaVuSans-50" d="M 1259 4147 
L 1259 2394 
L 2053 2394 
Q 2494 2394 2734 2622 
Q 2975 2850 2975 3272 
Q 2975 3691 2734 3919 
Q 2494 4147 2053 4147 
L 1259 4147 
z
M 628 4666 
L 2053 4666 
Q 2838 4666 3239 4311 
Q 3641 3956 3641 3272 
Q 3641 2581 3239 2228 
Q 2838 1875 2053 1875 
L 1259 1875 
L 1259 0 
L 628 0 
L 628 4666 
z
" transform="scale(0.015625)"/>
       <path id="DejaVuSans-67" d="M 2906 1791 
Q 2906 2416 2648 2759 
Q 2391 3103 1925 3103 
Q 1463 3103 1205 2759 
Q 947 2416 947 1791 
Q 947 1169 1205 825 
Q 1463 481 1925 481 
Q 2391 481 2648 825 
Q 2906 1169 2906 1791 
z
M 3481 434 
Q 3481 -459 3084 -895 
Q 2688 -1331 1869 -1331 
Q 1566 -1331 1297 -1286 
Q 1028 -1241 775 -1147 
L 775 -588 
Q 1028 -725 1275 -790 
Q 1522 -856 1778 -856 
Q 2344 -856 2625 -561 
Q 2906 -266 2906 331 
L 2906 616 
Q 2728 306 2450 153 
Q 2172 0 1784 0 
Q 1141 0 747 490 
Q 353 981 353 1791 
Q 353 2603 747 3093 
Q 1141 3584 1784 3584 
Q 2172 3584 2450 3431 
Q 2728 3278 2906 2969 
L 2906 3500 
L 3481 3500 
L 3481 434 
z
" transform="scale(0.015625)"/>
       <path id="DejaVuSans-70" d="M 1159 525 
L 1159 -1331 
L 581 -1331 
L 581 3500 
L 1159 3500 
L 1159 2969 
Q 1341 3281 1617 3432 
Q 1894 3584 2278 3584 
Q 2916 3584 3314 3078 
Q 3713 2572 3713 1747 
Q 3713 922 3314 415 
Q 2916 -91 2278 -91 
Q 1894 -91 1617 61 
Q 1341 213 1159 525 
z
M 3116 1747 
Q 3116 2381 2855 2742 
Q 2594 3103 2138 3103 
Q 1681 3103 1420 2742 
Q 1159 2381 1159 1747 
Q 1159 1113 1420 752 
Q 1681 391 2138 391 
Q 2594 391 2855 752 
Q 3116 1113 3116 1747 
z
" transform="scale(0.015625)"/>
       <path id="DejaVuSans-6f" d="M 1959 3097 
Q 1497 3097 1228 2736 
Q 959 2375 959 1747 
Q 959 1119 1226 758 
Q 1494 397 1959 397 
Q 2419 397 2687 759 
Q 2956 1122 2956 1747 
Q 2956 2369 2687 2733 
Q 2419 3097 1959 3097 
z
M 1959 3584 
Q 2709 3584 3137 3096 
Q 3566 2609 3566 1747 
Q 3566 888 3137 398 
Q 2709 -91 1959 -91 
Q 1206 -91 779 398 
Q 353 888 353 1747 
Q 353 2609 779 3096 
Q 1206 3584 1959 3584 
z
" transform="scale(0.015625)"/>
      </defs>
      <use xlink:href="#DejaVuSans-50"/>
      <use xlink:href="#DejaVuSans-69" x="58.052734"/>
      <use xlink:href="#DejaVuSans-6e" x="85.835938"/>
      <use xlink:href="#DejaVuSans-67" x="149.214844"/>
      <use xlink:href="#DejaVuSans-20" x="212.691406"/>
      <use xlink:href="#DejaVuSans-72" x="244.478516"/>
      <use xlink:href="#DejaVuSans-65" x="283.341797"/>
      <use xlink:href="#DejaVuSans-73" x="344.865234"/>
      <use xlink:href="#DejaVuSans-70" x="396.964844"/>
      <use xlink:href="#DejaVuSans-6f" x="460.441406"/>
      <use xlink:href="#DejaVuSans-6e" x="521.623047"/>
      <use xlink:href="#DejaVuSans-73" x="585.001953"/>
      <use xlink:href="#DejaVuSans-65" x="637.101562"/>
      <use xlink:href="#DejaVuSans-20" x="698.625"/>
      <use xlink:href="#DejaVuSans-74" x="730.412109"/>
      <use xlink:href="#DejaVuSans-69" x="769.621094"/>
      <use xlink:href="#DejaVuSans-6d" x="797.404297"/>
      <use xlink:href="#DejaVuSans-65" x="894.816406"/>
      <use xlink:href="#DejaVuSans-28" x="956.339844"/>
      <use xlink:href="#DejaVuSans-6d" x="995.353516"/>
      <use xlink:href="#DejaVuSans-73" x="1092.765625"/>
      <use xlink:href="#DejaVuSans-29" x="1144.865234"/>
     </g>
    </g>
   </g>
   <g id="line2d_15">
    <path d="M 185.220023 542.919957 
L 185.858227 543.40875 
L 186.177329 355.223405 
L 186.496431 366.710043 
L 187.166546 297.057026 
L 187.485648 518.113707 
L 188.411044 191.84431 
L 188.730146 432.697112 
L 189.049249 464.957457 
L 189.368351 541.331379 
L 189.719363 540.475991 
L 190.038465 540.475991 
L 190.357567 543.775345 
L 190.67667 543.897543 
L 190.995772 543.530948 
L 191.633976 543.897543 
L 191.953078 543.286552 
L 192.27218 543.653147 
L 192.910385 542.431164 
L 193.229487 542.67556 
L 193.548589 543.40875 
L 193.867691 542.553362 
L 194.186793 543.775345 
L 194.824998 540.353793 
L 195.1441 543.775345 
L 195.463202 543.653147 
L 195.782304 542.308966 
L 196.452419 543.775345 
L 196.771521 536.932241 
L 197.090623 543.286552 
L 197.409725 543.530948 
L 197.728827 542.431164 
L 198.04793 543.775345 
L 198.367032 543.653147 
L 198.686134 543.775345 
L 199.005236 543.40875 
L 199.64344 543.775345 
L 199.962543 543.775345 
L 200.281645 543.40875 
L 200.600747 543.40875 
L 200.919849 543.653147 
L 201.238951 543.40875 
L 201.558054 543.775345 
L 201.877156 542.919957 
L 202.196258 542.919957 
L 202.51536 543.40875 
L 202.834462 542.919957 
L 203.153564 543.530948 
L 204.110871 543.897543 
L 204.429973 543.653147 
L 204.780985 543.897543 
L 205.100088 542.186767 
L 205.41919 543.40875 
L 205.738292 543.286552 
L 206.057394 543.653147 
L 206.376496 543.042155 
L 206.695598 543.653147 
L 207.014701 514.692155 
L 207.429533 438.318233 
L 207.748636 511.148405 
L 208.38684 543.775345 
L 208.705942 542.919957 
L 209.025044 543.653147 
L 209.344146 543.775345 
L 209.695159 543.775345 
L 210.014261 543.653147 
L 210.333363 543.40875 
L 210.652465 542.553362 
L 210.971567 543.40875 
L 211.29067 543.653147 
L 211.609772 543.653147 
L 211.928874 542.797759 
L 212.247976 542.919957 
L 212.567078 543.653147 
L 212.88618 542.186767 
L 213.524385 543.164353 
L 213.843487 542.67556 
L 214.162589 538.765216 
L 214.481691 542.797759 
L 214.800793 541.575776 
L 215.119896 541.086983 
L 215.438998 542.67556 
L 215.7581 543.042155 
L 216.077202 543.653147 
L 216.396304 542.064569 
L 216.715406 542.553362 
L 217.034509 543.653147 
L 217.385521 543.40875 
L 217.704623 543.530948 
L 218.023725 543.40875 
L 218.342828 543.775345 
L 218.66193 541.453578 
L 218.981032 543.653147 
L 219.300134 543.286552 
L 219.619236 543.164353 
L 220.257441 543.653147 
L 220.576543 540.842586 
L 220.895645 543.286552 
L 221.214747 543.286552 
L 221.533849 543.775345 
L 221.852951 543.775345 
L 222.491156 542.431164 
L 222.810258 543.40875 
L 223.12936 543.164353 
L 223.448462 543.530948 
L 223.767564 543.653147 
L 224.086667 543.40875 
L 224.405769 543.775345 
L 224.756781 542.797759 
L 225.075883 543.530948 
L 225.394985 543.164353 
L 225.714088 543.530948 
L 226.03319 543.40875 
L 227.054317 206.630302 
L 227.820162 484.875776 
L 228.139264 543.653147 
L 228.458366 543.286552 
L 228.777468 543.40875 
L 229.096571 543.164353 
L 229.415673 543.653147 
L 229.734775 543.40875 
L 230.053877 543.775345 
L 230.372979 543.40875 
L 230.692081 542.67556 
L 231.011184 542.67556 
L 231.362196 543.653147 
L 232.0004 543.653147 
L 232.319502 543.530948 
L 232.638605 543.653147 
L 232.957707 543.286552 
L 233.276809 543.530948 
L 233.595911 543.530948 
L 233.915013 542.797759 
L 234.234115 543.40875 
L 234.553218 542.431164 
L 234.87232 543.530948 
L 235.191422 542.797759 
L 235.510524 542.67556 
L 235.829626 543.653147 
L 236.467831 543.40875 
L 236.786933 543.40875 
L 237.106035 542.919957 
L 237.425137 543.530948 
L 237.77615 543.653147 
L 238.095252 543.530948 
L 238.414354 543.042155 
L 238.733456 543.286552 
L 239.052558 542.186767 
L 239.37166 543.286552 
L 239.690763 543.164353 
L 240.328967 543.164353 
L 240.648069 543.530948 
L 240.967171 543.042155 
L 241.286273 543.653147 
L 241.605376 543.40875 
L 241.924478 542.308966 
L 242.24358 543.775345 
L 242.562682 543.653147 
L 242.913694 527.400776 
L 243.232797 543.530948 
L 243.551899 543.775345 
L 243.871001 542.553362 
L 244.190103 542.919957 
L 244.509205 543.042155 
L 244.828307 543.042155 
L 245.14741 542.553362 
M 247.444945 268.340431 
L 248.051239 322.840862 
L 248.370342 470.822974 
L 249.136187 262.841509 
L 249.965852 227.526207 
L 250.444506 377.830086 
L 250.763608 436.607457 
L 251.593273 230.703362 
L 251.912376 472.900345 
L 252.933503 165.082888 
L 253.444066 363.777284 
L 253.858899 389.683319 
L 254.656654 252.08806 
L 255.039577 414.245172 
L 255.48632 381.251638 
L 255.805422 472.778147 
L 256.124524 450.53806 
M 258.741162 152.618664 
L 259.92184 108.627284 
L 260.240942 499.783966 
L 260.560044 486.464353 
L 260.911057 415.467155 
L 261.230159 534.977069 
L 261.549261 511.148405 
L 261.900273 453.593017 
L 262.219376 422.676853 
L 262.538478 512.736983 
L 262.88949 429.519957 
L 263.208592 480.721034 
L 263.527694 459.458534 
L 263.878707 415.222759 
L 264.197809 536.932241 
L 265.027475 237.668664 
L 265.506128 379.174267 
L 266.303883 238.524052 
L 266.846357 350.213276 
L 267.165459 502.594526 
L 267.484561 542.553362 
L 267.803664 508.582241 
L 268.186586 411.679009 
L 268.82479 506.871466 
L 269.335354 357.422974 
L 269.750187 397.015216 
L 270.069289 498.928578 
L 270.739403 425.854009 
L 271.058506 534.488276 
L 271.377608 496.729009 
L 271.69671 495.507026 
L 272.015812 518.358103 
L 272.334914 514.203362 
L 272.973119 492.940862 
L 273.292221 463.857672 
L 273.611323 517.86931 
L 273.930425 510.904009 
L 274.249527 516.769526 
L 274.568629 441.617586 
L 274.887732 521.168664 
L 275.206834 485.608966 
L 275.525936 471.189569 
L 275.876948 488.908319 
L 276.196051 435.018879 
L 276.515153 460.558319 
L 276.834255 542.431164 
L 277.185267 495.995819 
L 277.504369 473.022543 
L 277.823472 432.208319 
L 278.142574 482.065216 
L 278.461676 514.447759 
L 279.06797 327.728793 
L 279.387072 474.855517 
L 279.706174 487.075345 
L 280.025277 533.266293 
L 280.344379 539.376207 
L 280.663481 504.060905 
L 281.333595 527.400776 
L 281.652698 477.177284 
L 281.9718 543.530948 
L 282.290902 541.575776 
L 282.610004 543.042155 
L 282.929106 542.919957 
L 283.248208 542.431164 
L 283.567311 541.453578 
L 284.428886 232.414138 
L 285.035181 325.895819 
L 285.705295 507.726853 
L 286.056308 543.530948 
L 286.37541 539.742802 
L 286.694512 543.775345 
L 287.013614 543.653147 
L 287.332716 541.942371 
L 287.651818 543.40875 
L 287.970921 543.164353 
L 288.290023 542.553362 
L 288.609125 543.40875 
L 288.928227 542.064569 
L 289.247329 543.042155 
L 289.566431 542.431164 
L 289.885534 542.919957 
L 290.523738 542.919957 
L 290.84284 542.186767 
L 291.161942 543.164353 
L 291.481044 542.797759 
L 291.800147 543.653147 
L 292.438351 543.042155 
L 292.757453 543.40875 
L 293.076555 543.286552 
L 293.395657 541.086983 
L 293.74667 543.653147 
L 294.065772 543.40875 
L 294.703976 543.653147 
L 295.023078 543.530948 
L 295.342181 540.842586 
L 295.661283 543.40875 
L 295.980385 543.775345 
L 296.299487 542.308966 
L 296.618589 543.40875 
L 296.937691 543.40875 
L 297.575896 542.797759 
L 297.894998 543.775345 
L 298.533202 543.286552 
L 298.852304 541.453578 
L 299.171407 543.164353 
L 299.490509 543.286552 
L 299.809611 543.164353 
L 300.128713 543.164353 
L 300.479726 543.530948 
L 300.798828 543.653147 
M 302.394339 543.40875 
L 303.766478 146.875345 
L 304.213221 381.251638 
L 304.564233 414.611767 
L 304.883335 499.050776 
L 305.202438 543.286552 
L 305.52154 541.942371 
L 305.840642 543.164353 
L 306.159744 542.67556 
L 306.510756 542.431164 
L 307.148961 543.530948 
L 307.468063 543.164353 
L 307.787165 541.575776 
L 308.106267 543.164353 
L 308.425369 543.530948 
L 309.063574 543.164353 
L 309.382676 541.820172 
L 309.701778 543.40875 
L 310.02088 543.042155 
L 310.339982 542.919957 
L 310.659085 543.164353 
L 310.978187 543.042155 
L 311.329199 543.530948 
L 311.648301 542.553362 
L 311.967404 543.164353 
L 312.286506 543.164353 
L 312.605608 543.042155 
L 313.243812 543.775345 
L 313.882017 542.67556 
L 314.201119 533.266293 
L 314.520221 543.40875 
L 314.839323 542.67556 
L 315.158425 543.286552 
L 315.477527 542.919957 
L 315.79663 543.164353 
L 316.115732 543.164353 
L 316.434834 542.919957 
L 316.753936 542.919957 
L 317.073038 536.932241 
L 317.39214 542.919957 
L 317.711243 543.530948 
L 318.030345 543.286552 
L 318.349447 541.331379 
L 318.668549 543.530948 
L 318.987651 542.67556 
L 319.306753 542.67556 
L 319.625856 543.40875 
L 319.944958 543.530948 
L 320.29597 542.919957 
L 320.615072 543.286552 
L 320.934174 543.042155 
L 321.253277 542.186767 
L 321.572379 543.164353 
L 322.274404 315.753362 
L 322.944518 302.922543 
L 323.29553 421.699267 
L 323.614633 429.27556 
L 323.933735 466.423836 
L 324.252837 542.308966 
L 324.571939 543.775345 
L 324.891041 543.40875 
L 325.210144 542.431164 
L 325.529246 542.797759 
L 325.848348 543.530948 
L 326.16745 543.286552 
L 326.486552 543.653147 
L 326.805654 543.530948 
L 327.124757 543.042155 
L 327.475769 543.653147 
L 327.794871 543.530948 
L 328.113973 543.653147 
L 328.433075 543.164353 
L 328.752178 543.530948 
L 329.07128 543.286552 
L 329.390382 540.59819 
L 329.709484 543.653147 
L 330.028586 543.40875 
L 330.347688 543.653147 
L 330.666791 543.286552 
L 330.985893 543.530948 
L 331.304995 543.042155 
L 331.624097 543.40875 
L 331.943199 543.530948 
L 332.262301 543.530948 
L 332.581404 542.919957 
L 332.900506 543.775345 
L 333.857812 543.042155 
L 334.176914 543.286552 
L 334.496017 543.164353 
L 334.815119 543.530948 
L 335.134221 543.042155 
L 335.453323 543.286552 
L 335.772425 543.286552 
L 336.091527 543.40875 
L 336.41063 542.064569 
L 336.729732 543.653147 
L 337.399846 542.919957 
L 338.038051 543.530948 
L 338.357153 543.286552 
L 338.676255 543.530948 
L 338.995357 542.919957 
L 339.314459 543.775345 
L 339.633561 543.653147 
L 339.952664 543.164353 
L 340.271766 543.042155 
L 340.590868 543.042155 
L 340.90997 543.164353 
L 341.516264 364.388276 
L 342.218289 294.61306 
L 342.792673 326.995603 
L 343.111775 466.668233 
L 343.430877 542.797759 
L 343.749979 542.67556 
L 344.069082 543.530948 
L 344.388184 542.308966 
L 344.707286 543.653147 
L 345.058298 543.286552 
L 345.377401 543.775345 
L 345.696503 543.40875 
L 346.015605 543.775345 
L 346.334707 543.775345 
L 346.653809 543.40875 
L 346.972911 543.530948 
L 347.292014 540.231595 
L 347.611116 543.164353 
L 347.930218 543.40875 
L 348.24932 541.697974 
L 348.600332 542.67556 
L 348.919435 542.919957 
L 349.238537 540.964784 
L 349.557639 541.209181 
L 349.876741 542.553362 
L 350.195843 543.164353 
L 350.514945 542.553362 
L 351.15315 543.164353 
L 351.472252 542.797759 
L 351.791354 543.40875 
L 352.110456 542.919957 
L 352.429558 543.286552 
L 352.748661 542.919957 
L 353.099673 543.40875 
L 353.418775 543.530948 
L 353.737877 542.553362 
L 354.056979 543.530948 
L 354.376082 543.530948 
L 354.695184 539.009612 
L 355.014286 500.028362 
L 355.333388 543.40875 
L 355.65249 543.40875 
L 355.971592 543.775345 
L 356.290695 543.653147 
L 356.928899 542.67556 
L 357.248001 543.530948 
L 357.567103 541.697974 
L 357.886205 543.164353 
L 358.205308 543.042155 
L 358.843512 543.653147 
L 359.162614 543.286552 
L 359.481716 543.40875 
L 359.800818 543.40875 
L 360.119921 520.435474 
L 361.045317 237.179871 
L 361.651611 315.020172 
L 362.545097 215.550776 
L 362.864199 479.987845 
L 363.183301 543.530948 
L 363.502404 542.064569 
L 363.821506 543.530948 
L 364.140608 542.553362 
L 364.49162 543.775345 
L 364.810723 543.042155 
L 365.129825 543.775345 
L 365.448927 542.553362 
L 365.768029 543.653147 
L 366.087131 542.797759 
L 366.406233 543.897543 
L 366.725336 543.530948 
L 367.044438 543.897543 
L 367.36354 541.942371 
L 368.001744 542.431164 
L 368.639949 541.575776 
L 368.959051 542.919957 
L 369.278153 542.797759 
L 369.597255 541.575776 
L 369.948267 542.797759 
L 370.26737 543.042155 
L 370.905574 542.431164 
L 371.224676 543.40875 
L 371.543778 543.775345 
L 371.86288 542.67556 
L 372.181983 543.286552 
L 372.820187 543.042155 
L 373.139289 543.164353 
L 373.458391 538.520819 
L 373.777493 543.653147 
L 374.096596 535.954655 
L 374.415698 542.67556 
L 374.7348 543.042155 
L 375.053902 541.575776 
L 375.373004 543.042155 
L 375.692106 543.286552 
L 376.011209 543.042155 
L 376.330311 543.40875 
L 376.649413 543.40875 
L 376.968515 543.653147 
L 377.287617 543.042155 
L 377.606719 543.164353 
L 377.925822 543.775345 
L 378.564026 543.530948 
L 378.883128 543.286552 
L 379.234141 543.164353 
L 379.936165 323.818448 
L 380.350998 385.650776 
L 381.372125 169.115431 
L 381.786958 399.459181 
L 382.10606 487.44194 
L 382.425162 522.635043 
L 382.744264 542.67556 
L 383.063367 543.775345 
L 383.382469 543.530948 
L 384.020673 543.775345 
L 384.339775 543.653147 
L 384.658877 542.186767 
L 384.97798 543.530948 
L 385.297082 543.775345 
L 385.616184 543.40875 
L 386.286298 543.653147 
L 386.605401 543.530948 
L 386.924503 542.553362 
L 387.243605 542.67556 
L 387.562707 543.286552 
L 387.881809 543.164353 
L 388.200911 529.111552 
L 388.520014 539.987198 
L 388.839116 542.553362 
L 389.158218 543.164353 
L 389.47732 543.042155 
L 389.796422 543.653147 
L 390.115524 542.67556 
L 390.434627 543.530948 
L 390.753729 539.009612 
L 391.136651 429.153362 
L 391.455754 538.643017 
L 391.774856 541.575776 
L 392.093958 543.40875 
L 392.44497 543.775345 
L 392.764072 543.40875 
L 393.083175 543.40875 
L 393.402277 468.623405 
L 394.231942 236.202284 
L 394.551045 433.919095 
L 394.870147 543.653147 
L 395.189249 542.553362 
L 395.508351 543.530948 
L 395.859363 531.799914 
L 396.210376 416.200345 
L 396.529478 542.186767 
L 397.040041 359.622543 
L 397.359144 543.164353 
L 397.997348 542.308966 
L 398.31645 542.67556 
M 400.518255 302.189353 
L 400.837357 428.908966 
L 401.156459 502.716724 
L 401.475562 543.40875 
L 401.794664 543.653147 
L 402.113766 543.530948 
L 402.75197 543.897543 
L 403.102983 543.775345 
L 403.422085 543.897543 
L 403.741187 543.775345 
L 404.060289 543.897543 
L 404.379391 543.286552 
L 404.698493 543.40875 
L 405.017596 542.67556 
L 405.336698 543.775345 
M 406.900298 542.67556 
L 407.219401 543.286552 
L 407.538503 542.919957 
L 407.857605 543.042155 
L 408.176707 543.40875 
L 408.495809 543.530948 
L 408.974463 492.085474 
L 409.293565 487.930733 
L 409.612667 543.775345 
L 409.931769 543.653147 
L 410.250871 530.944526 
L 410.569973 543.164353 
L 410.889076 543.164353 
L 411.208178 542.797759 
L 411.52728 543.530948 
L 411.878292 543.530948 
L 412.197394 543.286552 
L 412.516497 502.594526 
L 412.835599 543.40875 
L 413.984367 178.280302 
L 414.303469 446.138922 
L 414.622571 533.632888 
L 415.101224 380.518448 
L 415.420326 426.342802 
L 415.739428 527.034181 
L 416.249992 359.989138 
L 416.569094 479.865647 
L 416.888196 517.013922 
L 417.207298 538.398621 
L 417.526401 536.443448 
L 417.909323 408.624052 
L 418.228425 495.629224 
L 418.547528 543.897543 
L 418.86663 543.653147 
L 419.185732 542.67556 
L 419.504834 543.653147 
L 419.823936 543.653147 
L 420.143038 541.820172 
L 420.462141 542.797759 
M 422.408664 409.846034 
L 422.727766 531.677716 
L 423.046868 543.164353 
L 423.36597 543.164353 
L 423.685072 543.775345 
L 424.004175 542.553362 
L 424.323277 543.286552 
L 424.642379 542.431164 
L 424.961481 542.553362 
L 425.280583 542.553362 
L 426.397441 130.989569 
L 426.748453 518.358103 
L 427.354747 322.352069 
L 427.865311 349.968879 
L 428.184413 520.679871 
L 428.503515 543.530948 
L 428.822617 543.40875 
L 429.14172 537.909828 
L 429.460822 542.797759 
L 429.811834 543.653147 
L 430.130936 543.164353 
L 430.769141 543.775345 
L 431.088243 543.530948 
L 431.407345 543.530948 
L 431.726447 543.40875 
L 432.045549 542.797759 
L 432.364651 543.286552 
L 432.683754 543.530948 
L 433.002856 543.530948 
L 433.321958 543.653147 
L 433.64106 543.042155 
L 433.960162 543.286552 
L 434.279264 542.553362 
L 434.598367 543.40875 
L 434.917469 543.164353 
L 435.555673 543.530948 
L 435.874775 543.530948 
L 436.193877 543.164353 
L 436.51298 543.286552 
L 437.215004 309.887845 
L 437.853209 310.498836 
L 438.810515 194.166078 
L 439.608271 497.584397 
L 439.927373 543.530948 
L 440.246475 543.653147 
L 440.565577 543.653147 
L 440.884679 542.67556 
L 441.203781 543.653147 
L 441.522884 543.164353 
L 441.841986 543.653147 
L 442.161088 542.553362 
L 442.48019 543.40875 
L 442.799292 543.40875 
L 443.118394 542.919957 
L 443.437497 542.67556 
L 443.756599 542.186767 
L 444.075701 543.40875 
L 444.713905 543.775345 
L 445.033007 543.40875 
L 445.35211 543.653147 
L 445.671212 542.553362 
L 445.990314 542.919957 
L 446.309416 543.530948 
L 446.628518 542.553362 
L 446.94762 543.530948 
L 447.266723 543.40875 
L 447.585825 541.575776 
L 447.904927 543.042155 
L 448.224029 543.530948 
L 448.575042 542.431164 
L 448.894144 543.286552 
L 449.213246 543.042155 
L 449.532348 543.164353 
L 449.85145 543.653147 
L 450.170552 541.820172 
L 450.489655 543.530948 
L 450.808757 543.286552 
L 451.127859 543.40875 
L 451.446961 543.042155 
L 451.766063 543.653147 
L 452.404268 542.553362 
L 452.72337 543.286552 
L 453.042472 543.286552 
L 453.361574 543.530948 
L 453.680676 542.553362 
L 453.999778 543.40875 
L 454.318881 543.40875 
L 454.637983 543.530948 
L 454.957085 543.775345 
L 455.276187 543.40875 
L 455.595289 543.286552 
L 456.361134 308.421466 
L 457.095069 274.939138 
L 457.733274 310.25444 
L 458.307658 332.127931 
L 458.62676 511.881595 
L 458.945862 543.897543 
L 459.264964 542.67556 
L 459.584066 543.653147 
L 459.903169 543.653147 
L 460.222271 542.308966 
L 460.541373 543.897543 
L 461.179577 543.40875 
L 461.53059 543.286552 
L 461.849692 542.308966 
L 462.168794 542.186767 
L 462.487896 542.186767 
L 462.806998 540.231595 
L 463.1261 543.164353 
L 463.445203 542.431164 
L 463.764305 543.164353 
L 464.083407 541.820172 
L 464.402509 543.286552 
L 464.721611 543.40875 
L 465.040713 543.286552 
L 465.359816 542.797759 
L 466.02993 543.40875 
L 466.349032 542.186767 
L 466.668134 543.40875 
L 466.987237 543.042155 
L 467.306339 543.775345 
L 467.625441 543.164353 
L 467.944543 543.042155 
L 468.263645 543.164353 
L 468.582747 543.653147 
L 468.90185 543.530948 
L 469.220952 543.286552 
L 469.540054 543.530948 
L 469.859156 543.530948 
L 470.178258 543.40875 
L 470.49736 543.042155 
L 470.816463 543.40875 
L 471.135565 543.042155 
L 471.454667 543.40875 
L 471.773769 543.40875 
L 472.124782 543.653147 
L 472.762986 542.797759 
L 473.082088 543.286552 
L 473.40119 543.164353 
L 473.720292 543.530948 
L 474.039395 543.40875 
L 474.358497 543.653147 
L 474.677599 543.653147 
L 474.996701 537.787629 
L 475.762546 293.513276 
L 476.783673 165.938276 
L 477.358057 336.527069 
L 477.677159 503.327716 
L 477.996261 543.775345 
L 478.634466 543.775345 
L 478.953568 543.286552 
L 479.27267 543.775345 
L 479.591772 543.653147 
L 479.910874 543.775345 
L 480.261887 543.40875 
L 480.580989 543.897543 
L 480.900091 542.308966 
L 481.219193 543.897543 
L 481.538295 543.653147 
L 482.1765 543.897543 
M 483.803921 543.530948 
L 484.123023 543.530948 
L 484.442125 543.653147 
L 484.761227 543.530948 
M 486.67584 543.042155 
L 486.994943 543.530948 
L 487.696967 400.681164 
L 488.016069 517.624914 
L 488.335172 500.639353 
L 488.973376 543.653147 
L 489.292478 543.775345 
L 490.281695 543.775345 
L 490.600797 543.164353 
L 490.919899 543.653147 
L 491.239001 543.286552 
M 492.738782 543.40875 
L 493.057884 543.042155 
L 493.376986 543.653147 
L 493.727998 543.286552 
L 494.685305 293.146681 
L 495.163958 368.543017 
M 497.397673 293.268879 
L 497.716775 526.056595 
L 498.035878 523.368233 
L 498.35498 543.286552 
L 498.674082 543.653147 
L 498.993184 543.775345 
L 499.312286 543.530948 
L 499.631388 542.797759 
L 499.950491 543.897543 
L 500.269593 543.775345 
L 500.588695 543.775345 
L 501.226899 541.453578 
L 501.546001 542.67556 
L 502.184206 542.431164 
L 502.503308 542.553362 
L 503.141512 542.919957 
L 503.460614 541.820172 
L 503.779717 543.286552 
L 504.417921 543.653147 
L 504.737023 543.775345 
L 505.056125 540.964784 
L 505.375227 542.064569 
L 505.69433 542.67556 
L 506.045342 542.431164 
L 506.364444 542.919957 
L 506.683546 543.775345 
L 507.002648 543.530948 
L 507.321751 543.530948 
L 507.640853 542.919957 
L 507.959955 543.286552 
L 508.598159 543.530948 
L 509.555466 212.129224 
L 509.874568 541.942371 
L 510.19367 541.331379 
M 511.884912 482.920603 
L 512.523116 357.422974 
M 520.341119 179.991078 
L 520.724042 409.846034 
M 522.798206 341.903793 
L 523.787422 169.726422 
M 525.765856 359.744741 
L 526.084958 526.42319 
L 527.233726 111.437845 
L 527.552828 486.830948 
L 528.510135 190.500129 
L 528.829237 543.042155 
M 532.786104 235.591293 
L 533.67959 213.962198 
M 536.774881 543.40875 
L 537.093983 542.919957 
L 537.444995 543.653147 
L 537.764097 543.042155 
L 538.0832 543.164353 
M 539.965902 542.431164 
L 540.285005 543.042155 
L 540.604107 542.186767 
L 540.923209 542.919957 
L 541.242311 542.67556 
L 541.593323 542.67556 
L 541.912426 543.653147 
L 542.231528 543.164353 
L 542.55063 543.775345 
L 543.188834 543.164353 
L 543.507936 543.40875 
L 543.827039 543.40875 
L 544.146141 543.286552 
L 544.784345 542.797759 
L 545.103447 543.775345 
L 545.45446 543.164353 
L 545.773562 543.286552 
L 546.092664 543.530948 
L 546.411766 543.40875 
L 546.730868 543.40875 
L 547.049971 542.919957 
L 547.369073 543.530948 
L 548.039187 542.919957 
L 548.358289 539.865 
L 548.677392 543.775345 
L 548.996494 543.042155 
L 549.315596 543.775345 
L 549.9538 543.530948 
L 550.272902 542.553362 
L 550.623915 543.775345 
L 551.262119 543.286552 
L 552.187515 307.566078 
L 552.985271 244.389569 
L 553.495834 360.600129 
L 553.878757 405.93569 
L 554.197859 499.783966 
L 554.516961 543.653147 
L 554.836063 543.897543 
L 555.187076 543.897543 
L 555.506178 543.164353 
L 555.82528 543.897543 
L 556.144382 543.530948 
L 556.463484 543.775345 
L 556.782587 543.530948 
L 557.101689 542.186767 
L 557.739893 542.797759 
L 558.058995 543.775345 
L 558.378097 543.775345 
L 558.6972 542.797759 
L 559.016302 543.775345 
L 559.335404 543.775345 
L 559.654506 542.919957 
M 561.186197 543.775345 
L 561.505299 543.775345 
L 561.856311 535.221466 
L 562.175413 543.897543 
L 562.813618 543.530948 
L 563.451822 543.897543 
L 563.770924 543.775345 
L 564.441039 543.775345 
L 564.760141 543.40875 
L 565.079243 543.897543 
L 565.398345 543.530948 
L 566.036549 540.59819 
L 566.355652 541.942371 
L 566.674754 541.575776 
L 567.025766 530.211336 
M 571.365556 192.5775 
L 571.684658 490.374698 
L 572.00376 487.319741 
L 572.322862 542.553362 
L 572.641964 543.40875 
L 572.961067 540.964784 
L 573.280169 543.897543 
L 573.599271 543.653147 
L 573.918373 543.775345 
L 574.237475 543.042155 
L 574.588488 543.775345 
L 574.90759 541.942371 
L 575.226692 541.820172 
L 575.864896 542.308966 
L 576.183998 525.079009 
L 576.503101 543.653147 
L 576.822203 542.67556 
L 577.141305 543.40875 
L 577.460407 542.186767 
L 577.779509 543.530948 
L 578.098611 543.530948 
L 578.417714 543.653147 
L 578.736816 543.042155 
L 579.055918 542.67556 
L 579.37502 540.59819 
L 579.726032 447.483103 
L 580.045135 517.013922 
L 580.364237 543.653147 
L 580.683339 543.042155 
L 581.002441 543.530948 
L 581.321543 542.919957 
L 581.640645 543.530948 
L 581.959748 543.40875 
L 582.27885 538.887414 
L 582.597952 543.530948 
L 582.917054 542.797759 
L 583.236156 542.67556 
L 583.874361 543.286552 
L 584.512565 543.653147 
L 584.831667 543.164353 
L 585.469872 543.775345 
L 585.788974 543.775345 
L 586.108076 543.40875 
L 586.427178 542.67556 
L 586.74628 543.653147 
L 587.097293 543.530948 
L 587.416395 543.286552 
L 587.735497 543.530948 
L 588.054599 543.164353 
L 588.373701 543.653147 
L 588.692803 543.775345 
L 589.011906 543.775345 
L 589.331008 543.286552 
L 589.65011 543.530948 
M 592.234837 204.919526 
L 592.58585 416.322543 
L 592.904952 511.148405 
L 593.224054 532.7775 
L 593.543156 543.653147 
L 593.862259 543.897543 
L 594.181361 543.897543 
L 594.500463 543.530948 
L 594.851475 543.897543 
L 595.170577 543.40875 
L 595.48968 543.897543 
L 595.808782 543.775345 
M 597.404293 542.67556 
L 597.723395 542.431164 
L 598.042497 542.797759 
L 598.393509 542.919957 
L 598.712611 542.553362 
L 599.031714 543.530948 
L 599.382726 531.188922 
L 599.701828 542.919957 
L 600.02093 542.308966 
L 600.340033 542.308966 
L 600.659135 543.164353 
L 600.978237 542.553362 
L 601.616441 543.775345 
L 601.935543 543.286552 
L 602.254646 543.653147 
L 602.573748 543.042155 
L 603.531054 543.775345 
L 604.201169 543.042155 
L 604.520271 543.164353 
L 604.839373 543.653147 
L 605.158475 540.109397 
L 605.477577 542.797759 
L 605.79668 543.775345 
L 606.115782 543.164353 
L 606.434884 543.40875 
L 606.913537 477.910474 
L 607.26455 542.431164 
L 607.583652 543.653147 
L 607.902754 543.775345 
L 608.221856 543.775345 
L 608.540958 543.40875 
L 608.86006 543.286552 
M 611.157596 289.480733 
L 611.476698 439.051422 
L 611.7958 524.834612 
L 612.114903 543.40875 
L 612.434005 543.042155 
L 612.753107 543.530948 
L 613.072209 543.775345 
L 613.391311 543.286552 
L 613.742324 543.40875 
L 614.061426 543.897543 
L 614.380528 543.530948 
L 614.69963 543.775345 
L 615.018732 543.40875 
L 615.656937 543.897543 
L 615.976039 543.897543 
M 617.507729 543.653147 
L 617.826831 541.942371 
L 618.145933 543.164353 
L 618.465036 543.40875 
L 618.784138 542.797759 
L 619.10324 543.042155 
L 619.454252 542.431164 
L 619.773355 543.775345 
L 620.092457 542.67556 
L 620.411559 542.308966 
L 620.730661 543.530948 
L 621.049763 542.67556 
L 621.368865 543.775345 
L 621.687968 543.40875 
L 622.00707 543.530948 
L 622.326172 543.530948 
L 622.645274 543.40875 
L 622.964376 543.530948 
L 623.315389 542.553362 
L 623.634491 543.164353 
L 623.953593 543.40875 
L 624.432246 482.554009 
L 625.00663 387.728147 
L 625.325732 527.278578 
L 625.644834 435.385474 
L 625.963937 474.855517 
L 626.283039 479.743448 
L 626.602141 537.909828 
L 626.921243 517.747112 
L 627.240345 474.977716 
L 627.559447 479.132457 
L 627.87855 510.78181 
L 628.644395 256.487198 
M 630.271816 543.775345 
L 630.590918 543.653147 
L 630.91002 543.775345 
L 631.229122 543.164353 
L 631.580135 543.40875 
L 631.899237 543.775345 
L 632.218339 543.286552 
L 632.537441 540.720388 
L 632.856543 542.064569 
L 633.494748 543.530948 
L 633.81385 542.553362 
L 634.132952 543.530948 
L 634.452054 543.653147 
M 638.664203 262.597112 
L 638.983305 484.386983 
L 639.68533 290.702716 
L 640.004432 538.276422 
L 640.323534 527.034181 
L 640.642636 531.433319 
L 640.961738 542.431164 
L 641.280841 542.919957 
L 641.599943 543.775345 
L 642.238147 543.40875 
L 642.557249 542.553362 
L 642.876351 543.40875 
L 643.514556 542.797759 
L 643.833658 543.286552 
L 644.15276 543.286552 
L 644.471862 543.164353 
L 644.790964 543.286552 
L 645.110067 541.331379 
L 645.429169 543.653147 
L 645.780181 543.40875 
L 646.099283 541.942371 
L 646.418386 541.820172 
L 646.737488 542.553362 
L 647.05659 540.475991 
L 647.630974 351.435259 
M 652.417506 494.162845 
L 652.736608 511.026207 
L 653.055711 537.05444 
L 653.374813 528.378362 
L 653.693915 543.286552 
L 654.013017 543.897543 
L 654.332119 543.530948 
L 654.651221 543.775345 
L 655.321336 543.775345 
L 655.640438 542.797759 
L 655.95954 542.431164 
L 656.278643 542.308966 
L 656.597745 541.697974 
L 656.916847 543.530948 
L 657.235949 543.40875 
L 657.555051 543.530948 
L 658.193256 542.797759 
L 658.512358 542.919957 
L 658.83146 542.431164 
L 659.150562 543.653147 
L 659.469664 542.797759 
L 659.788766 543.164353 
L 660.107869 509.071034 
L 660.426971 542.67556 
L 660.746073 542.186767 
L 661.065175 541.086983 
L 661.384277 542.919957 
L 662.022482 543.164353 
L 662.341584 543.775345 
L 662.820237 454.937198 
L 663.617992 276.038922 
L 664.032825 392.371681 
L 664.926311 219.094526 
L 665.245413 539.498405 
L 666.075079 228.74819 
L 666.936655 227.526207 
L 667.255757 502.716724 
L 667.574859 537.298836 
L 667.893961 542.797759 
L 668.213064 543.653147 
L 668.851268 543.897543 
L 669.17037 543.775345 
L 669.489472 543.40875 
L 669.808574 543.530948 
M 671.723187 436.240862 
L 672.265661 354.734612 
M 673.893082 526.667586 
L 674.531287 541.697974 
L 674.850389 543.530948 
L 675.169491 539.376207 
L 675.488593 543.653147 
L 676.892643 106.305517 
L 677.243655 472.167155 
M 679.381639 308.910259 
L 679.700742 534.366078 
L 680.019844 543.530948 
L 680.338946 543.775345 
L 680.658048 510.048621 
L 680.97715 543.40875 
L 681.296252 543.653147 
L 681.615355 543.653147 
L 681.966367 542.797759 
L 682.285469 543.530948 
L 682.604571 540.842586 
M 687.550655 478.154871 
L 687.901667 519.457888 
L 688.22077 543.775345 
L 688.539872 542.797759 
L 688.858974 543.530948 
L 689.178076 543.775345 
L 689.497178 543.530948 
L 689.81628 543.897543 
L 690.135383 543.897543 
L 690.773587 543.286552 
L 691.092689 543.897543 
L 691.411791 541.697974 
L 691.730893 543.530948 
L 692.049996 543.653147 
L 692.369098 543.653147 
L 692.6882 543.530948 
L 693.007302 543.775345 
L 693.964609 543.775345 
L 694.283711 541.942371 
L 694.602813 541.942371 
L 695.241017 543.775345 
L 695.560119 540.353793 
L 695.879222 543.775345 
L 696.230234 541.942371 
L 696.549336 541.697974 
L 696.868438 542.919957 
L 697.18754 527.522974 
L 697.506643 542.553362 
L 697.825745 542.431164 
L 698.144847 543.775345 
L 698.463949 543.40875 
L 698.783051 543.530948 
L 699.102153 543.286552 
L 699.421256 543.653147 
L 699.740358 543.40875 
L 700.05946 543.40875 
M 702.325085 325.529224 
L 702.771828 386.017371 
L 703.090931 513.470172 
L 703.410033 542.67556 
L 703.729135 523.001638 
L 704.048237 537.787629 
L 704.367339 543.653147 
L 704.686441 543.897543 
L 705.005544 542.553362 
L 705.324646 543.897543 
L 705.643748 542.186767 
L 705.96285 541.697974 
L 706.281952 542.308966 
L 706.601054 540.842586 
L 706.920157 543.286552 
L 707.558361 542.064569 
L 707.877463 542.553362 
L 708.196565 543.530948 
L 708.547578 541.942371 
L 708.86668 543.40875 
L 709.185782 543.653147 
L 709.504884 542.67556 
L 709.823986 533.388491 
L 710.143088 540.353793 
L 710.462191 541.942371 
M 712.568265 317.219741 
L 712.887367 540.59819 
L 713.206469 543.653147 
L 713.525571 543.775345 
L 713.844674 543.653147 
L 714.163776 500.028362 
L 714.482878 542.553362 
L 714.80198 543.775345 
L 715.121082 543.775345 
L 715.440184 542.919957 
L 715.759287 543.042155 
L 716.078389 541.820172 
L 716.429401 543.164353 
L 716.748503 542.67556 
L 717.067605 543.775345 
L 717.386708 543.653147 
L 718.024912 541.942371 
M 720.577729 178.769095 
L 720.896831 526.300991 
L 721.215934 543.653147 
L 721.535036 531.555517 
L 721.854138 543.653147 
L 722.492342 543.653147 
L 722.811445 542.186767 
L 723.130547 540.109397 
M 724.981339 450.53806 
L 725.300441 524.834612 
L 725.619544 543.775345 
L 725.938646 543.775345 
L 726.257748 543.897543 
L 726.57685 542.67556 
L 726.895952 543.653147 
L 727.215054 543.775345 
L 727.534157 543.653147 
L 727.853259 543.775345 
L 728.172361 543.530948 
L 728.810565 543.897543 
L 729.44877 543.897543 
L 729.767872 543.775345 
L 730.406076 541.575776 
L 730.725178 541.331379 
L 731.04428 541.942371 
L 731.363383 500.761552 
L 731.682485 540.475991 
M 738.38363 442.228578 
L 738.702732 525.567802 
L 739.309027 339.093233 
L 739.628129 479.743448 
L 740.266333 535.465862 
L 740.585435 543.653147 
L 741.22364 543.897543 
L 741.542742 540.964784 
L 741.861844 543.530948 
L 742.212856 543.042155 
L 742.531958 543.775345 
L 742.851061 542.919957 
L 743.170163 543.653147 
L 743.489265 543.775345 
L 743.808367 543.40875 
L 744.127469 542.67556 
L 744.446571 543.530948 
L 744.765674 543.897543 
L 745.084776 543.775345 
L 745.403878 543.40875 
L 745.72298 543.897543 
L 746.042082 543.653147 
L 746.361184 542.919957 
L 746.680287 543.653147 
L 746.999389 541.942371 
L 747.318491 541.209181 
L 747.637593 543.164353 
L 747.956695 543.653147 
M 754.689751 428.908966 
L 755.008853 540.59819 
L 755.359866 543.653147 
L 755.678968 543.40875 
L 755.99807 543.897543 
L 756.317172 543.40875 
L 756.636274 543.897543 
M 758.231785 543.286552 
L 758.550887 543.653147 
L 758.9019 541.453578 
L 759.221002 543.653147 
L 759.859206 543.653147 
L 760.178308 543.40875 
L 760.497411 542.553362 
L 760.816513 542.797759 
L 761.135615 542.797759 
L 761.454717 541.697974 
L 761.773819 543.530948 
M 764.454277 240.845819 
L 765.411584 189.644741 
L 765.730686 452.248836 
L 766.049788 529.600345 
L 766.36889 532.166509 
L 766.687993 530.944526 
L 767.007095 543.775345 
L 767.645299 543.775345 
L 767.964401 542.308966 
L 768.283503 542.67556 
L 768.602606 543.897543 
L 768.921708 543.897543 
L 769.24081 542.67556 
L 769.559912 543.775345 
L 769.879014 543.653147 
L 770.517219 543.897543 
L 770.868231 543.653147 
L 771.187333 543.775345 
L 771.506435 543.653147 
L 771.825537 543.775345 
L 772.463742 542.919957 
L 772.782844 543.775345 
L 773.101946 543.653147 
L 773.421048 542.919957 
L 773.74015 542.919957 
M 776.420609 114.859397 
L 776.739711 525.323405 
L 777.058813 543.530948 
L 777.697017 543.775345 
L 778.01612 543.530948 
L 778.335222 535.710259 
L 778.654324 543.775345 
L 778.973426 543.286552 
L 779.324438 543.042155 
L 779.643541 543.775345 
L 779.962643 543.530948 
L 780.281745 537.665431 
L 780.600847 543.40875 
L 780.919949 543.530948 
L 781.239051 543.164353 
L 782.419729 112.659828 
L 783.313216 206.508103 
M 785.51502 303.777931 
L 785.834123 512.370388 
L 786.153225 543.653147 
L 786.472327 532.04431 
L 786.791429 543.530948 
L 787.110531 543.897543 
L 787.429633 543.530948 
L 787.748736 543.775345 
L 788.067838 501.61694 
L 788.38694 543.775345 
L 788.706042 543.530948 
L 789.025144 543.530948 
L 789.344246 542.308966 
L 789.663349 542.553362 
L 790.014361 542.308966 
L 790.652565 543.40875 
L 790.971668 542.67556 
L 791.29077 543.653147 
L 791.609872 543.042155 
M 802.427435 543.775345 
L 803.06564 543.775345 
L 803.384742 543.653147 
L 804.756881 151.641078 
M 806.320482 522.390647 
L 806.639584 542.308966 
L 806.958686 543.164353 
L 807.277788 541.942371 
L 807.59689 542.553362 
L 807.915993 543.530948 
L 808.235095 542.064569 
L 808.873299 543.164353 
L 809.192401 542.431164 
L 809.511503 542.919957 
L 809.830606 542.553362 
L 810.46881 543.530948 
L 810.787912 542.797759 
M 813.276909 306.955086 
L 813.596011 529.600345 
L 813.915113 436.36306 
L 814.553318 543.40875 
L 814.87242 543.530948 
L 815.191522 542.797759 
L 815.510624 543.775345 
L 815.829726 543.775345 
L 816.148829 542.431164 
L 816.467931 543.530948 
L 816.787033 542.67556 
L 817.106135 543.775345 
L 817.425237 542.431164 
L 817.744339 542.919957 
M 822.530872 542.67556 
L 822.849974 543.530948 
L 823.169076 543.653147 
L 823.520089 543.653147 
L 823.839191 543.897543 
L 824.158293 543.775345 
L 825.115599 543.775345 
L 825.434702 542.431164 
L 825.785714 543.775345 
L 826.423918 541.331379 
L 826.743021 542.431164 
L 827.062123 536.932241 
L 827.413135 543.164353 
L 827.732237 542.67556 
L 828.051339 542.431164 
L 828.370442 543.775345 
L 828.689544 541.820172 
L 829.008646 543.775345 
L 829.327748 541.086983 
L 829.64685 543.40875 
M 833.444166 393.104871 
L 833.763268 532.04431 
L 834.08237 543.164353 
L 834.401473 543.164353 
L 835.326869 208.341078 
L 835.645971 537.421034 
L 836.603278 192.5775 
L 836.92238 529.844741 
L 837.241482 543.164353 
L 837.560584 543.286552 
L 838.198788 542.67556 
L 839.283736 140.398836 
M 840.879247 543.775345 
L 841.198349 543.286552 
L 841.517451 543.897543 
L 841.868463 543.775345 
L 842.187565 543.530948 
L 842.506668 543.653147 
L 842.82577 541.697974 
L 843.144872 542.308966 
L 843.463974 541.453578 
L 843.783076 541.820172 
L 844.134089 535.58806 
M 846.591175 316.119957 
L 846.910278 504.794095 
L 847.22938 543.530948 
L 847.548482 543.775345 
L 848.090956 351.557457 
L 848.952531 221.049698 
L 849.271634 542.553362 
L 849.590736 543.042155 
L 849.909838 542.919957 
L 850.22894 543.40875 
L 850.548042 543.653147 
L 850.867144 543.530948 
L 851.186247 543.286552 
L 851.72872 357.911767 
L 852.047822 542.553362 
L 852.366925 542.797759 
L 852.686027 543.653147 
L 853.005129 543.775345 
L 853.324231 542.67556 
L 853.643333 543.653147 
L 853.962435 543.653147 
M 855.557946 543.653147 
L 855.877048 543.775345 
L 856.515253 543.775345 
L 856.834355 543.897543 
L 857.185367 543.286552 
L 857.50447 540.231595 
L 857.823572 542.67556 
L 858.142674 543.897543 
L 858.461776 543.530948 
L 858.780878 543.897543 
L 859.09998 543.775345 
L 859.450993 539.13181 
L 859.770095 543.775345 
L 860.089197 538.520819 
L 860.408299 543.042155 
M 862.259092 543.653147 
L 862.578194 543.164353 
L 862.897296 543.653147 
L 863.216398 543.530948 
L 863.5355 543.775345 
L 864.205615 542.431164 
L 864.556627 536.32125 
L 865.194832 542.67556 
L 865.513934 542.919957 
L 865.833036 542.797759 
L 866.47124 543.897543 
L 866.790343 543.775345 
M 870.236646 543.530948 
L 870.555748 543.653147 
L 870.906761 539.987198 
L 871.225863 543.775345 
L 871.544965 543.530948 
L 871.864067 543.653147 
L 872.183169 543.530948 
L 872.821374 543.775345 
L 873.491488 543.775345 
L 873.81059 533.755086 
L 874.544525 381.496034 
M 876.873971 258.442371 
L 877.224983 506.382672 
L 877.544086 509.682026 
L 877.863188 500.639353 
L 878.18229 543.530948 
L 878.501392 543.653147 
L 878.820494 543.897543 
L 879.139596 543.775345 
L 879.458699 539.254009 
L 879.777801 543.775345 
L 880.096903 542.919957 
L 880.416005 541.331379 
L 880.735107 543.653147 
L 881.054209 543.653147 
L 881.373312 543.042155 
L 881.692414 543.775345 
L 882.011516 542.67556 
L 882.362528 543.40875 
L 882.681631 536.932241 
L 883.000733 541.942371 
L 883.638937 543.286552 
M 885.713101 360.477931 
L 886.032203 520.313276 
L 886.351305 542.797759 
L 886.670408 543.286552 
L 886.98951 542.553362 
L 887.308612 543.530948 
L 887.627714 542.797759 
L 887.978727 540.59819 
L 888.297829 542.67556 
L 888.616931 542.431164 
L 889.669968 156.529009 
L 889.98907 537.543233 
M 891.45694 543.40875 
L 891.776042 543.286552 
L 892.095144 543.40875 
L 892.414247 543.775345 
L 892.765259 542.186767 
L 893.212002 494.040647 
L 893.531104 543.042155 
L 893.850206 542.919957 
L 894.488411 543.775345 
L 894.807513 543.530948 
L 895.126615 542.797759 
L 895.445717 543.530948 
L 895.764819 542.431164 
L 896.083922 542.67556 
L 897.136959 219.094526 
L 897.870894 270.295603 
L 898.572918 290.947112 
L 898.892021 455.792586 
L 899.211123 542.797759 
L 899.530225 543.775345 
L 899.849327 543.775345 
L 900.168429 543.40875 
L 900.487531 543.775345 
L 901.157646 543.775345 
L 901.476748 543.042155 
L 901.79585 543.897543 
L 902.114953 542.67556 
L 902.434055 542.67556 
L 902.753157 542.431164 
L 903.072259 543.40875 
L 903.710463 542.186767 
L 904.029566 543.042155 
L 904.348668 543.530948 
L 904.66777 543.286552 
L 904.986872 543.286552 
L 905.305974 542.797759 
L 905.625076 542.797759 
L 905.944179 542.553362 
L 906.582383 542.553362 
L 907.220587 543.530948 
L 907.539689 539.620603 
L 907.858792 543.286552 
L 908.177894 543.40875 
L 908.496996 543.164353 
L 908.816098 543.164353 
L 909.1352 543.286552 
L 909.454302 543.042155 
L 909.773405 543.286552 
L 910.092507 542.67556 
L 910.411609 543.042155 
L 910.762621 543.653147 
L 911.081723 543.40875 
L 911.400826 543.653147 
L 911.719928 542.919957 
L 912.03903 543.164353 
L 912.358132 542.919957 
L 912.677234 543.530948 
L 912.996336 543.286552 
L 913.315439 543.775345 
L 913.953643 542.797759 
L 914.272745 543.530948 
L 914.591847 542.67556 
L 914.910949 543.286552 
L 915.230052 543.286552 
L 916.44264 138.68806 
L 917.080844 313.920388 
L 917.399946 436.36306 
L 917.719049 474.855517 
L 918.038151 543.286552 
L 918.357253 543.775345 
L 918.676355 542.797759 
L 918.995457 543.40875 
L 919.314559 543.775345 
L 919.952764 542.919957 
L 920.271866 541.942371 
L 920.590968 543.653147 
L 920.91007 543.286552 
L 921.229172 543.530948 
L 921.548275 542.553362 
L 921.867377 543.653147 
L 922.218389 542.553362 
L 922.537491 542.919957 
L 922.856593 543.775345 
L 923.175696 542.67556 
L 923.494798 543.653147 
L 923.8139 542.67556 
L 924.133002 543.653147 
L 924.452104 542.186767 
L 924.771206 542.797759 
L 925.090309 543.653147 
L 925.409411 526.056595 
L 925.728513 543.653147 
L 926.047615 542.553362 
L 926.366717 543.530948 
L 926.685819 538.765216 
L 927.004922 539.254009 
L 927.324024 543.530948 
L 927.643126 543.042155 
L 927.962228 543.897543 
L 928.28133 543.164353 
L 928.632343 542.919957 
L 928.951445 543.775345 
L 929.270547 543.40875 
L 929.589649 543.530948 
L 929.908751 541.820172 
L 930.674597 280.682457 
L 931.12134 388.461336 
L 931.440442 543.286552 
L 931.759544 543.653147 
L 932.302018 348.258103 
L 932.68494 405.2025 
L 933.323145 533.021897 
L 933.897528 342.14819 
L 934.216631 543.40875 
L 934.535733 541.086983 
L 934.886745 424.754224 
M 936.450346 543.897543 
L 936.769448 543.897543 
L 937.08855 542.919957 
L 937.407652 543.897543 
M 939.322265 541.820172 
L 939.641367 543.775345 
L 939.96047 543.653147 
L 940.311482 542.431164 
L 940.694405 514.692155 
L 941.013507 542.064569 
L 941.332609 542.919957 
L 941.651711 542.797759 
L 941.970813 543.40875 
L 942.289915 542.797759 
L 942.609018 543.286552 
L 942.92812 520.068879 
L 943.279132 543.775345 
L 943.598234 542.553362 
L 943.917337 543.530948 
M 946.310603 312.942802 
L 946.629705 534.243879 
L 947.267909 306.221897 
L 947.618922 534.610474 
L 947.938024 542.67556 
L 948.257126 542.919957 
L 948.576228 541.209181 
L 948.89533 540.231595 
L 949.214433 543.530948 
L 949.852637 543.775345 
L 950.171739 542.186767 
L 950.490841 541.697974 
L 950.809943 543.286552 
L 951.129046 543.042155 
L 951.448148 541.209181 
L 952.086352 321.130086 
L 952.405454 533.388491 
L 953.426581 166.304871 
L 954.160516 265.774267 
M 958.947049 543.897543 
L 959.266151 543.042155 
L 959.617163 543.897543 
L 959.936265 542.797759 
L 960.255368 542.67556 
L 960.57447 543.775345 
L 960.893572 543.897543 
L 961.531776 543.530948 
L 961.882789 543.286552 
L 962.201891 541.086983 
L 962.520993 542.67556 
L 962.840095 540.842586 
M 964.690888 542.67556 
L 965.07381 528.744957 
L 965.392912 542.67556 
L 965.712015 543.042155 
L 966.031117 543.653147 
L 966.669321 543.042155 
L 966.988423 543.530948 
L 967.307525 542.919957 
L 967.626628 543.775345 
L 967.94573 543.164353 
L 968.264832 543.286552 
L 968.583934 543.530948 
L 968.903036 543.164353 
L 969.222138 543.042155 
L 969.573151 537.298836 
L 969.892253 542.919957 
L 970.211355 543.40875 
L 970.530457 542.67556 
L 970.849559 543.530948 
L 971.168662 543.286552 
L 971.487764 543.40875 
L 971.806866 543.775345 
L 972.125968 540.109397 
L 972.44507 542.919957 
M 974.902157 304.511121 
L 975.572272 518.235905 
L 975.891374 543.286552 
L 976.210476 535.465862 
L 976.529578 543.530948 
L 976.84868 543.653147 
L 977.167782 542.797759 
L 977.486885 543.530948 
L 977.805987 538.765216 
L 978.125089 543.775345 
L 978.444191 543.286552 
L 978.763293 543.897543 
L 979.082395 543.775345 
L 979.401498 540.353793 
L 979.7206 543.653147 
L 980.039702 542.67556 
L 980.358804 542.797759 
L 980.677906 542.431164 
L 980.997008 541.697974 
M 982.560609 542.797759 
L 982.879711 542.919957 
L 983.230724 543.530948 
L 983.868928 543.530948 
L 984.18803 543.40875 
L 984.507132 543.775345 
L 984.826234 543.775345 
L 985.145337 543.530948 
L 985.783541 542.064569 
L 986.134553 543.40875 
L 986.453655 542.186767 
L 986.772758 541.820172 
L 987.09186 542.186767 
L 987.410962 543.286552 
L 987.730064 540.109397 
L 988.049166 543.164353 
L 988.400179 533.51069 
L 988.719281 532.655302 
L 989.038383 538.276422 
L 989.357485 537.298836 
L 989.708498 532.655302 
L 990.0276 526.42319 
L 990.346702 525.079009 
L 990.665804 540.964784 
L 991.016816 543.40875 
L 991.335919 541.575776 
L 991.655021 527.889569 
M 993.665364 451.393448 
L 994.303569 521.901853 
L 994.622671 542.919957 
L 994.941773 543.286552 
L 995.260875 465.690647 
L 995.579977 515.05875 
L 995.89908 543.653147 
L 996.218182 542.797759 
L 996.218182 542.797759 
" clip-path="url(#p0b0987dbb1)" style="fill: none; stroke-dasharray: 2,3.3; stroke-dashoffset: 0; stroke: #cfd5ff; stroke-width: 2"/>
   </g>
   <g id="patch_3">
    <path d="M 144 576.72 
L 144 77.76 
" style="fill: none; stroke: #cfd5ff; stroke-width: 0.8; stroke-linejoin: miter; stroke-linecap: square"/>
   </g>
   <g id="patch_4">
    <path d="M 1036.8 576.72 
L 1036.8 77.76 
" style="fill: none; stroke: #202020; stroke-width: 0.8; stroke-linejoin: miter; stroke-linecap: square"/>
   </g>
   <g id="patch_5">
    <path d="M 144 576.72 
L 1036.8 576.72 
" style="fill: none; stroke: #cfd5ff; stroke-width: 0.8; stroke-linejoin: miter; stroke-linecap: square"/>
   </g>
   <g id="patch_6">
    <path d="M 144 77.76 
L 1036.8 77.76 
" style="fill: none; stroke: #202020; stroke-width: 0.8; stroke-linejoin: miter; stroke-linecap: square"/>
   </g>
  </g>
 </g>
 <defs>
  <clipPath id="p0b0987dbb1">
   <rect x="144" y="77.76" width="892.8" height="498.96"/>
  </clipPath>
 </defs>
</svg>
